<svg width="188" height="31" viewBox="0 0 188 31" fill="none" xmlns="http://www.w3.org/2000/svg">
<path d="M11.436 30.0301C9.16449 30.0301 7.1671 29.6124 5.44386 28.7768C3.72063 27.9152 2.37598 26.7403 1.40992 25.252C0.469974 23.7377 0 21.9883 0 20.004C0 17.8108 0.456919 15.9309 1.37076 14.3643C2.28459 12.7977 3.49869 11.5967 5.01305 10.7612C6.55352 9.89956 8.25065 9.46875 10.1044 9.46875C12.2193 9.46875 13.9817 9.91261 15.3916 10.8003C16.8277 11.6881 17.9112 12.9022 18.6423 14.4426C19.3734 15.957 19.7389 17.6933 19.7389 19.6515C19.7389 19.9909 19.7128 20.3956 19.6606 20.8656C19.6345 21.3095 19.5953 21.662 19.5431 21.9231H6.38381C6.54047 22.6019 6.84073 23.1763 7.28459 23.6463C7.72846 24.1163 8.28981 24.4687 8.96867 24.7037C9.64752 24.9126 10.4047 25.017 11.2402 25.017H17.389V30.0301H11.436ZM6.22715 18.1241H13.8642C13.812 17.7063 13.7337 17.3016 13.6292 16.91C13.5248 16.5184 13.3551 16.1789 13.1201 15.8917C12.9112 15.5784 12.6632 15.3173 12.376 15.1084C12.0888 14.8735 11.7493 14.6907 11.3577 14.5601C10.9922 14.4296 10.5744 14.3643 10.1044 14.3643C9.50391 14.3643 8.96867 14.4687 8.49869 14.6776C8.02872 14.8865 7.63707 15.1737 7.32376 15.5392C7.01044 15.8787 6.7624 16.2834 6.57963 16.7533C6.42298 17.1972 6.30548 17.6541 6.22715 18.1241Z" fill="#476BC7"/>
<path d="M31.3438 30.5001C29.5684 30.5001 28.0018 30.0432 26.6441 29.1293C25.2864 28.2155 24.2289 26.9883 23.4718 25.4479C22.7146 23.8813 22.336 22.1189 22.336 20.1607C22.336 18.1241 22.7799 16.3095 23.6676 14.7168C24.5553 13.098 25.8086 11.8186 27.4274 10.8787C29.0723 9.93872 31.0044 9.46875 33.2237 9.46875C35.4691 9.46875 37.3752 9.93872 38.9417 10.8787C40.5344 11.7925 41.7485 13.0588 42.584 14.6776C43.4456 16.2703 43.8765 18.0588 43.8765 20.0432V30.0301H37.9235V26.8186H37.7668C37.4013 27.5236 36.9313 28.1633 36.3569 28.7377C35.7825 29.286 35.0775 29.7168 34.242 30.0301C33.4326 30.3434 32.4665 30.5001 31.3438 30.5001ZM33.1454 25.252C34.0592 25.252 34.8556 25.0301 35.5344 24.5862C36.2394 24.1163 36.7746 23.4766 37.1402 22.6672C37.5057 21.8578 37.6885 20.957 37.6885 19.9648C37.6885 18.9988 37.5057 18.1241 37.1402 17.3408C36.7746 16.5575 36.2394 15.9439 35.5344 15.5001C34.8556 15.0301 34.0592 14.7951 33.1454 14.7951C32.2054 14.7951 31.383 15.0301 30.678 15.5001C29.9731 15.9439 29.4378 16.5575 29.0723 17.3408C28.7067 18.1241 28.524 18.9988 28.524 19.9648C28.524 20.957 28.7067 21.8578 29.0723 22.6672C29.4378 23.4766 29.9731 24.1163 30.678 24.5862C31.383 25.0301 32.2054 25.252 33.1454 25.252Z" fill="#476BC7"/>
<path d="M48.4048 30.0301V25.2129H58.0785C58.3396 25.2129 58.5746 25.1607 58.7834 25.0562C58.9923 24.9257 59.162 24.756 59.2926 24.5471C59.4231 24.3382 59.4884 24.1163 59.4884 23.8813C59.4884 23.6202 59.4231 23.3852 59.2926 23.1763C59.162 22.9674 58.9923 22.8108 58.7834 22.7063C58.5746 22.5758 58.3396 22.5105 58.0785 22.5105H54.5537C53.2482 22.5105 52.0602 22.3016 50.9897 21.8839C49.9453 21.44 49.1098 20.7612 48.4832 19.8473C47.8827 18.9074 47.5824 17.6933 47.5824 16.205C47.5824 15.0562 47.8565 14.0118 48.4048 13.0719C48.9793 12.1319 49.7495 11.3748 50.7156 10.8003C51.7077 10.2259 52.7913 9.93872 53.9662 9.93872H63.6398V14.7951H54.9062C54.5406 14.7951 54.2273 14.9126 53.9662 15.1476C53.7312 15.3826 53.6137 15.6698 53.6137 16.0092C53.6137 16.3748 53.7312 16.6881 53.9662 16.9492C54.2273 17.1842 54.5406 17.3016 54.9062 17.3016H58.3526C59.8148 17.3016 61.068 17.5236 62.1124 17.9674C63.1829 18.3852 64.0054 19.064 64.5798 20.004C65.1803 20.9439 65.4806 22.158 65.4806 23.6463C65.4806 24.8212 65.1803 25.8917 64.5798 26.8578C64.0054 27.8238 63.2221 28.5941 62.2299 29.1685C61.2639 29.7429 60.1672 30.0301 58.9401 30.0301H48.4048Z" fill="#476BC7"/>
<path d="M79.6296 30.0301C77.3581 30.0301 75.3607 29.6124 73.6375 28.7768C71.9142 27.9152 70.5696 26.7403 69.6035 25.252C68.6636 23.7377 68.1936 21.9883 68.1936 20.004C68.1936 17.8108 68.6505 15.9309 69.5644 14.3643C70.4782 12.7977 71.6923 11.5967 73.2067 10.7612C74.7471 9.89956 76.4443 9.46875 78.298 9.46875C80.4129 9.46875 82.1753 9.91261 83.5853 10.8003C85.0213 11.6881 86.1048 12.9022 86.8359 14.4426C87.567 15.957 87.9325 17.6933 87.9325 19.6515C87.9325 19.9909 87.9064 20.3956 87.8542 20.8656C87.8281 21.3095 87.7889 21.662 87.7367 21.9231H74.5774C74.7341 22.6019 75.0343 23.1763 75.4782 23.6463C75.9221 24.1163 76.4834 24.4687 77.1623 24.7037C77.8411 24.9126 78.5983 25.017 79.4338 25.017H85.5826V30.0301H79.6296ZM74.4208 18.1241H82.0578C82.0056 17.7063 81.9273 17.3016 81.8229 16.91C81.7184 16.5184 81.5487 16.1789 81.3137 15.8917C81.1048 15.5784 80.8568 15.3173 80.5696 15.1084C80.2824 14.8735 79.943 14.6907 79.5513 14.5601C79.1858 14.4296 78.768 14.3643 78.298 14.3643C77.6975 14.3643 77.1623 14.4687 76.6923 14.6776C76.2223 14.8865 75.8307 15.1737 75.5174 15.5392C75.2041 15.8787 74.956 16.2834 74.7732 16.7533C74.6166 17.1972 74.4991 17.6541 74.4208 18.1241Z" fill="#476BC7"/>
<path d="M101.671 30.03C99.5824 30.03 97.7287 29.5992 96.1099 28.7376C94.4911 27.8499 93.2117 26.6619 92.2717 25.1736C91.3318 23.6593 90.8618 21.936 90.8618 20.0039C90.8618 18.0718 91.3318 16.3616 92.2717 14.8734C93.2117 13.359 94.4911 12.158 96.1099 11.2702C97.7287 10.3825 99.5824 9.93864 101.671 9.93864H104.687V15.0692H101.906C100.888 15.0692 100.013 15.2911 99.2822 15.735C98.5511 16.1527 97.9767 16.7402 97.5589 17.4974C97.1673 18.2285 96.9715 19.064 96.9715 20.0039C96.9715 20.9439 97.1673 21.7924 97.5589 22.5496C97.9767 23.2807 98.5511 23.8681 99.2822 24.312C100.013 24.7298 100.888 24.9386 101.906 24.9386H104.687V30.03H101.671Z" fill="#FB7369"/>
<path d="M108.057 30.03V1.43995H114.127V30.03H108.057Z" fill="#FB7369"/>
<path d="M126.68 30.5C124.905 30.5 123.338 30.0431 121.981 29.1292C120.623 28.2154 119.566 26.9882 118.808 25.4478C118.051 23.8812 117.673 22.1188 117.673 20.1606C117.673 18.124 118.117 16.3094 119.004 14.7167C119.892 13.0979 121.145 11.8185 122.764 10.8786C124.409 9.93864 126.341 9.46867 128.56 9.46867C130.806 9.46867 132.712 9.93864 134.278 10.8786C135.871 11.7924 137.085 13.0587 137.921 14.6775C138.782 16.2702 139.213 18.0587 139.213 20.0431V30.03H133.26V26.8185H133.103C132.738 27.5235 132.268 28.1632 131.694 28.7376C131.119 29.2859 130.414 29.7167 129.579 30.03C128.769 30.3433 127.803 30.5 126.68 30.5ZM128.482 25.252C129.396 25.252 130.192 25.03 130.871 24.5862C131.576 24.1162 132.111 23.4765 132.477 22.6671C132.842 21.8577 133.025 20.9569 133.025 19.9647C133.025 18.9987 132.842 18.124 132.477 17.3407C132.111 16.5574 131.576 15.9439 130.871 15.5C130.192 15.03 129.396 14.795 128.482 14.795C127.542 14.795 126.72 15.03 126.015 15.5C125.31 15.9439 124.774 16.5574 124.409 17.3407C124.043 18.124 123.861 18.9987 123.861 19.9647C123.861 20.9569 124.043 21.8577 124.409 22.6671C124.774 23.4765 125.31 24.1162 126.015 24.5862C126.72 25.03 127.542 25.252 128.482 25.252Z" fill="#FB7369"/>
<path d="M143.702 30.03V9.93864H149.812V30.03H143.702ZM146.757 7.6671C145.791 7.6671 144.956 7.31462 144.251 6.60966C143.546 5.9047 143.193 5.06919 143.193 4.10313C143.193 3.13707 143.546 2.30156 144.251 1.59661C144.956 0.865535 145.791 0.5 146.757 0.5C147.723 0.5 148.559 0.865535 149.264 1.59661C149.969 2.30156 150.321 3.13707 150.321 4.10313C150.321 5.06919 149.969 5.9047 149.264 6.60966C148.559 7.31462 147.723 7.6671 146.757 7.6671Z" fill="#FB7369"/>
<path d="M154.258 30.03V18.1632C154.258 16.5183 154.637 15.0431 155.394 13.7376C156.177 12.406 157.287 11.3616 158.723 10.6044C160.159 9.84726 161.869 9.46867 163.854 9.46867C164.846 9.46867 165.76 9.58616 166.595 9.82115C167.431 10.03 168.188 10.3303 168.867 10.7219C169.572 11.0875 170.172 11.5313 170.668 12.0535H170.747C171.269 11.5313 171.869 11.0875 172.548 10.7219C173.253 10.3303 174.023 10.03 174.859 9.82115C175.721 9.58616 176.647 9.46867 177.64 9.46867C179.624 9.46867 181.334 9.84726 182.77 10.6044C184.206 11.3616 185.316 12.406 186.099 13.7376C186.882 15.0431 187.274 16.5183 187.274 18.1632V30.03H181.164V18.359C181.164 17.7063 180.995 17.1188 180.655 16.5966C180.342 16.0483 179.911 15.6044 179.363 15.265C178.815 14.9256 178.188 14.7559 177.483 14.7559C176.778 14.7559 176.138 14.9256 175.564 15.265C175.016 15.6044 174.585 16.0483 174.271 16.5966C173.958 17.1188 173.801 17.7063 173.801 18.359V30.03H167.731V18.359C167.731 17.7063 167.561 17.1188 167.222 16.5966C166.909 16.0483 166.465 15.6044 165.89 15.265C165.342 14.9256 164.715 14.7559 164.01 14.7559C163.305 14.7559 162.666 14.9256 162.091 15.265C161.543 15.6044 161.112 16.0483 160.799 16.5966C160.486 17.1188 160.329 17.7063 160.329 18.359V30.03H154.258Z" fill="#FB7369"/>
</svg>
